<mxfile host="app.diagrams.net" modified="2024-05-15T08:36:37.010Z" agent="Mozilla/5.0 (X11; Linux x86_64) AppleWebKit/537.36 (KHTML, like Gecko) Chrome/124.0.0.0 Safari/537.36 Edg/124.0.0.0" etag="cwu6uTbP155dDW2fETVO" version="24.4.0" type="github">
  <diagram name="Page-1" id="03018318-947c-dd8e-b7a3-06fadd420f32">
    <mxGraphModel dx="3084" dy="2136" grid="1" gridSize="10" guides="1" tooltips="1" connect="1" arrows="1" fold="1" page="1" pageScale="1" pageWidth="1100" pageHeight="850" background="none" math="0" shadow="0">
      <root>
        <mxCell id="0" />
        <mxCell id="1" parent="0" />
        <mxCell id="YqHEcOafbWfe2nH9aOqu-1" value="" style="rounded=0;whiteSpace=wrap;html=1;fillColor=#ffe6cc;strokeColor=#d79b00;" vertex="1" parent="1">
          <mxGeometry x="20" y="20" width="1060" height="150" as="geometry" />
        </mxCell>
        <mxCell id="YqHEcOafbWfe2nH9aOqu-3" value="" style="rounded=0;whiteSpace=wrap;html=1;fillColor=#ffe6cc;strokeColor=#d79b00;" vertex="1" parent="1">
          <mxGeometry x="100" y="50" width="930" height="60" as="geometry" />
        </mxCell>
        <mxCell id="YqHEcOafbWfe2nH9aOqu-4" value="ICFAI UNIVERSITY Jaipur&lt;br&gt;Attendence Portal" style="strokeWidth=1;shadow=0;dashed=0;align=center;html=1;shape=mxgraph.mockup.text.alphanumeric;linkText=;html=1;fontStyle=4;fontSize=17;fontColor=#0000ff;" vertex="1" parent="1">
          <mxGeometry x="350" y="55" width="450" height="50" as="geometry" />
        </mxCell>
        <mxCell id="YqHEcOafbWfe2nH9aOqu-5" value="" style="whiteSpace=wrap;html=1;aspect=fixed;" vertex="1" parent="1">
          <mxGeometry x="560" y="235.5" width="520" height="520" as="geometry" />
        </mxCell>
        <mxCell id="YqHEcOafbWfe2nH9aOqu-7" value="" style="strokeWidth=1;shadow=0;dashed=0;align=center;html=1;shape=mxgraph.mockup.text.alphanumeric;linkText=;html=1;fontStyle=4;fontSize=17;fontColor=#0000ff;" vertex="1" parent="1">
          <mxGeometry x="616" y="271" width="450" height="50" as="geometry" />
        </mxCell>
        <mxCell id="YqHEcOafbWfe2nH9aOqu-8" value="&lt;font style=&quot;font-size: 40px;&quot;&gt;QR CODE HERE&lt;/font&gt;" style="whiteSpace=wrap;html=1;aspect=fixed;" vertex="1" parent="1">
          <mxGeometry x="652" y="327.5" width="336" height="336" as="geometry" />
        </mxCell>
        <mxCell id="YqHEcOafbWfe2nH9aOqu-9" value="&lt;font style=&quot;font-size: 24px;&quot;&gt;Connect to College Wi-Fi and Scan the&amp;nbsp;&lt;/font&gt;&lt;div style=&quot;font-size: 24px;&quot;&gt;&lt;font style=&quot;font-size: 24px;&quot;&gt;QR Code to Mark Attendance&lt;/font&gt;&lt;/div&gt;" style="strokeWidth=1;shadow=0;dashed=0;align=center;html=1;shape=mxgraph.mockup.text.alphanumeric;linkText=;html=1;fontStyle=4;fontSize=17;fontColor=#0000ff;" vertex="1" parent="1">
          <mxGeometry x="610" y="260" width="450" height="50" as="geometry" />
        </mxCell>
        <mxCell id="YqHEcOafbWfe2nH9aOqu-11" value="&lt;font style=&quot;font-size: 22px;&quot;&gt;Please scan the QR code to mark your attendance.&lt;/font&gt;" style="strokeWidth=1;shadow=0;dashed=0;align=center;html=1;shape=mxgraph.mockup.text.alphanumeric;linkText=;html=1;fontStyle=4;fontSize=17;fontColor=#0000ff;" vertex="1" parent="1">
          <mxGeometry x="595" y="680" width="450" height="50" as="geometry" />
        </mxCell>
        <mxCell id="YqHEcOafbWfe2nH9aOqu-12" value="" style="rounded=0;whiteSpace=wrap;html=1;" vertex="1" parent="1">
          <mxGeometry x="30" y="235.5" width="400" height="524.5" as="geometry" />
        </mxCell>
        <mxCell id="YqHEcOafbWfe2nH9aOqu-13" value="Present Countt = 0" style="strokeWidth=1;shadow=0;dashed=0;align=center;html=1;shape=mxgraph.mockup.text.alphanumeric;linkText=;html=1;fontStyle=4;fontSize=17;fontColor=#0000ff;" vertex="1" parent="1">
          <mxGeometry x="90" y="260" width="290" height="50" as="geometry" />
        </mxCell>
        <mxCell id="YqHEcOafbWfe2nH9aOqu-14" value="Presents Students" style="strokeWidth=1;shadow=0;dashed=0;align=center;html=1;shape=mxgraph.mockup.text.alphanumeric;linkText=;html=1;fontStyle=4;fontSize=17;fontColor=#0000ff;" vertex="1" parent="1">
          <mxGeometry x="10" y="321" width="450" height="50" as="geometry" />
        </mxCell>
        <mxCell id="YqHEcOafbWfe2nH9aOqu-15" value="Add Manually" style="strokeWidth=1;shadow=0;dashed=0;align=center;html=1;shape=mxgraph.mockup.buttons.button;strokeColor=#666666;fontColor=#ffffff;mainText=;buttonStyle=round;fontSize=17;fontStyle=1;fillColor=#008cff;whiteSpace=wrap;" vertex="1" parent="1">
          <mxGeometry x="150" y="490" width="150" height="50" as="geometry" />
        </mxCell>
        <mxCell id="YqHEcOafbWfe2nH9aOqu-16" value="Submit" style="strokeWidth=1;shadow=0;dashed=0;align=center;html=1;shape=mxgraph.mockup.buttons.button;strokeColor=#666666;fontColor=#ffffff;mainText=;buttonStyle=round;fontSize=17;fontStyle=1;fillColor=#008cff;whiteSpace=wrap;" vertex="1" parent="1">
          <mxGeometry x="150" y="560" width="150" height="50" as="geometry" />
        </mxCell>
        <mxCell id="YqHEcOafbWfe2nH9aOqu-17" style="edgeStyle=none;curved=1;rounded=0;orthogonalLoop=1;jettySize=auto;html=1;exitX=1;exitY=1;exitDx=0;exitDy=0;fontSize=12;startSize=8;endSize=8;" edge="1" parent="1" source="YqHEcOafbWfe2nH9aOqu-12" target="YqHEcOafbWfe2nH9aOqu-12">
          <mxGeometry relative="1" as="geometry" />
        </mxCell>
        <mxCell id="YqHEcOafbWfe2nH9aOqu-18" value="&lt;font style=&quot;font-size: 25px;&quot;&gt;© QR Attendance System 2024 - Team Learning Outlaws&lt;/font&gt;" style="rounded=0;whiteSpace=wrap;html=1;" vertex="1" parent="1">
          <mxGeometry x="20" y="790" width="1060" height="60" as="geometry" />
        </mxCell>
        <mxCell id="YqHEcOafbWfe2nH9aOqu-20" value="" style="rounded=0;whiteSpace=wrap;html=1;fillColor=#ffe6cc;strokeColor=#d79b00;" vertex="1" parent="1">
          <mxGeometry x="1110" y="20" width="1060" height="150" as="geometry" />
        </mxCell>
        <mxCell id="YqHEcOafbWfe2nH9aOqu-21" value="" style="rounded=0;whiteSpace=wrap;html=1;fillColor=#ffe6cc;strokeColor=#d79b00;" vertex="1" parent="1">
          <mxGeometry x="1190" y="50" width="930" height="60" as="geometry" />
        </mxCell>
        <mxCell id="YqHEcOafbWfe2nH9aOqu-22" value="ICFAI UNIVERSITY Jaipur&lt;br&gt;Attendence Portal" style="strokeWidth=1;shadow=0;dashed=0;align=center;html=1;shape=mxgraph.mockup.text.alphanumeric;linkText=;html=1;fontStyle=4;fontSize=17;fontColor=#0000ff;" vertex="1" parent="1">
          <mxGeometry x="1440" y="55" width="450" height="50" as="geometry" />
        </mxCell>
        <mxCell id="YqHEcOafbWfe2nH9aOqu-24" value="" style="strokeWidth=1;shadow=0;dashed=0;align=center;html=1;shape=mxgraph.mockup.text.alphanumeric;linkText=;html=1;fontStyle=4;fontSize=17;fontColor=#0000ff;" vertex="1" parent="1">
          <mxGeometry x="1706" y="271" width="450" height="50" as="geometry" />
        </mxCell>
        <mxCell id="YqHEcOafbWfe2nH9aOqu-34" value="&lt;font style=&quot;font-size: 25px;&quot;&gt;© QR Attendance System 2024 - Team Learning Outlaws&lt;/font&gt;" style="rounded=0;whiteSpace=wrap;html=1;" vertex="1" parent="1">
          <mxGeometry x="1110" y="790" width="1060" height="60" as="geometry" />
        </mxCell>
        <mxCell id="YqHEcOafbWfe2nH9aOqu-35" value="Login" style="strokeWidth=1;shadow=0;dashed=0;align=center;html=1;shape=mxgraph.mockup.buttons.button;strokeColor=#666666;fontColor=#ffffff;mainText=;buttonStyle=round;fontSize=17;fontStyle=1;fillColor=#FF4B14;whiteSpace=wrap;" vertex="1" parent="1">
          <mxGeometry x="1603" y="120" width="124" height="40" as="geometry" />
        </mxCell>
        <mxCell id="YqHEcOafbWfe2nH9aOqu-36" value="" style="rounded=0;whiteSpace=wrap;html=1;" vertex="1" parent="1">
          <mxGeometry x="1310" y="240" width="690" height="510" as="geometry" />
        </mxCell>
        <mxCell id="YqHEcOafbWfe2nH9aOqu-37" value="Welcome, Student Name" style="strokeWidth=1;shadow=0;dashed=0;align=center;html=1;shape=mxgraph.mockup.buttons.button;strokeColor=#666666;fontColor=#ffffff;mainText=;buttonStyle=round;fontSize=17;fontStyle=1;fillColor=#FF5E24;whiteSpace=wrap;" vertex="1" parent="1">
          <mxGeometry x="1536.5" y="271" width="257" height="50" as="geometry" />
        </mxCell>
        <mxCell id="YqHEcOafbWfe2nH9aOqu-38" value="&lt;font style=&quot;font-size: 32px;&quot;&gt;&lt;b&gt;Branch&amp;nbsp; &amp;nbsp; &amp;nbsp; &amp;nbsp; &amp;nbsp; : Branch name&amp;nbsp;&lt;br&gt;Section&amp;nbsp; &amp;nbsp; &amp;nbsp; &amp;nbsp; &amp;nbsp; : Section Name&lt;/b&gt;&lt;/font&gt;&lt;div style=&quot;font-size: 32px;&quot;&gt;&lt;font style=&quot;font-size: 32px;&quot;&gt;&lt;b&gt;Year&amp;nbsp; &amp;nbsp; &amp;nbsp; &amp;nbsp; &amp;nbsp; &amp;nbsp;:&amp;nbsp; Year Name&lt;br&gt;&lt;/b&gt;&lt;/font&gt;&lt;div style=&quot;&quot;&gt;&lt;div style=&quot;&quot;&gt;&lt;span style=&quot;background-color: initial;&quot;&gt;&lt;b&gt;Semester : Sem name&lt;/b&gt;&lt;/span&gt;&lt;/div&gt;&lt;br&gt;&lt;/div&gt;&lt;/div&gt;" style="strokeWidth=1;shadow=0;dashed=0;align=center;html=1;shape=mxgraph.mockup.text.alphanumeric;linkText=;html=1;fontStyle=4;fontSize=17;fontColor=#0000ff;" vertex="1" parent="1">
          <mxGeometry x="1470" y="328" width="450" height="262" as="geometry" />
        </mxCell>
        <mxCell id="YqHEcOafbWfe2nH9aOqu-39" value="click On Check Mark To Mark Attendence" style="strokeWidth=1;shadow=0;dashed=0;align=left;html=1;shape=mxgraph.mockup.buttons.onOffButton;gradientColor=none;strokeColor=#999999;buttonState=on;fillColor2=#008cff;fontColor=#ffffff;fontSize=17;mainText=;spacingRight=40;fontStyle=1;whiteSpace=wrap;" vertex="1" parent="1">
          <mxGeometry x="1420" y="560" width="530" height="50" as="geometry" />
        </mxCell>
        <mxCell id="YqHEcOafbWfe2nH9aOqu-41" value="Submit" style="strokeWidth=1;shadow=0;dashed=0;align=center;html=1;shape=mxgraph.mockup.buttons.button;strokeColor=#666666;fontColor=#ffffff;mainText=;buttonStyle=round;fontSize=17;fontStyle=1;fillColor=#008cff;whiteSpace=wrap;" vertex="1" parent="1">
          <mxGeometry x="1591" y="650" width="150" height="50" as="geometry" />
        </mxCell>
        <mxCell id="YqHEcOafbWfe2nH9aOqu-44" value="" style="rounded=0;whiteSpace=wrap;html=1;fillColor=#ffe6cc;strokeColor=#d79b00;" vertex="1" parent="1">
          <mxGeometry x="20" y="890" width="1060" height="150" as="geometry" />
        </mxCell>
        <mxCell id="YqHEcOafbWfe2nH9aOqu-45" value="" style="rounded=0;whiteSpace=wrap;html=1;fillColor=#ffe6cc;strokeColor=#d79b00;" vertex="1" parent="1">
          <mxGeometry x="100" y="920" width="930" height="60" as="geometry" />
        </mxCell>
        <mxCell id="YqHEcOafbWfe2nH9aOqu-46" value="ICFAI UNIVERSITY Jaipur&lt;br&gt;Attendence Portal" style="strokeWidth=1;shadow=0;dashed=0;align=center;html=1;shape=mxgraph.mockup.text.alphanumeric;linkText=;html=1;fontStyle=4;fontSize=17;fontColor=#0000ff;" vertex="1" parent="1">
          <mxGeometry x="350" y="925" width="450" height="50" as="geometry" />
        </mxCell>
        <mxCell id="YqHEcOafbWfe2nH9aOqu-47" value="" style="strokeWidth=1;shadow=0;dashed=0;align=center;html=1;shape=mxgraph.mockup.text.alphanumeric;linkText=;html=1;fontStyle=4;fontSize=17;fontColor=#0000ff;" vertex="1" parent="1">
          <mxGeometry x="616" y="1141" width="450" height="50" as="geometry" />
        </mxCell>
        <mxCell id="YqHEcOafbWfe2nH9aOqu-48" value="&lt;font style=&quot;font-size: 25px;&quot;&gt;© QR Attendance System 2024 - Team Learning Outlaws&lt;/font&gt;" style="rounded=0;whiteSpace=wrap;html=1;" vertex="1" parent="1">
          <mxGeometry x="20" y="1660" width="1060" height="60" as="geometry" />
        </mxCell>
        <mxCell id="YqHEcOafbWfe2nH9aOqu-52" value="&lt;div style=&quot;font-size: 32px;&quot;&gt;&lt;div style=&quot;&quot;&gt;&lt;br&gt;&lt;/div&gt;&lt;/div&gt;" style="strokeWidth=1;shadow=0;dashed=0;align=center;html=1;shape=mxgraph.mockup.text.alphanumeric;linkText=;html=1;fontStyle=4;fontSize=17;fontColor=#0000ff;" vertex="1" parent="1">
          <mxGeometry x="380" y="1198" width="450" height="262" as="geometry" />
        </mxCell>
        <mxCell id="YqHEcOafbWfe2nH9aOqu-55" value="" style="rounded=0;whiteSpace=wrap;html=1;" vertex="1" parent="1">
          <mxGeometry x="330" y="1100" width="490" height="531" as="geometry" />
        </mxCell>
        <mxCell id="YqHEcOafbWfe2nH9aOqu-56" value="&lt;font style=&quot;font-size: 55px;&quot;&gt;********&lt;/font&gt;" style="strokeWidth=1;shadow=0;dashed=0;align=center;html=1;shape=mxgraph.mockup.forms.pwField;strokeColor=#999999;mainText=;align=left;fontColor=#666666;fontSize=34;spacingLeft=3;" vertex="1" parent="1">
          <mxGeometry x="385" y="1410" width="380" height="70" as="geometry" />
        </mxCell>
        <mxCell id="YqHEcOafbWfe2nH9aOqu-57" value="&lt;font style=&quot;font-size: 22px;&quot;&gt;USERNAME&lt;/font&gt;" style="strokeWidth=1;shadow=0;dashed=0;align=center;html=1;shape=mxgraph.mockup.text.textBox;fontColor=#666666;align=left;fontSize=17;spacingLeft=4;spacingTop=-3;whiteSpace=wrap;strokeColor=#666666;mainText=" vertex="1" parent="1">
          <mxGeometry x="382.5" y="1275" width="385" height="70" as="geometry" />
        </mxCell>
        <mxCell id="YqHEcOafbWfe2nH9aOqu-58" style="edgeStyle=none;curved=1;rounded=0;orthogonalLoop=1;jettySize=auto;html=1;entryX=0.486;entryY=-0.032;entryDx=0;entryDy=0;entryPerimeter=0;fontSize=12;startSize=8;endSize=8;" edge="1" parent="1" source="YqHEcOafbWfe2nH9aOqu-57" target="YqHEcOafbWfe2nH9aOqu-57">
          <mxGeometry relative="1" as="geometry" />
        </mxCell>
        <mxCell id="YqHEcOafbWfe2nH9aOqu-59" value="&lt;font style=&quot;font-size: 32px;&quot;&gt;USERNAME&lt;/font&gt;" style="strokeWidth=1;shadow=0;dashed=0;align=left;html=1;shape=mxgraph.mockup.text.alphanumeric;linkText=;html=1;fontStyle=4;fontSize=17;fontColor=#0000ff;" vertex="1" parent="1">
          <mxGeometry x="381" y="1226" width="450" height="50" as="geometry" />
        </mxCell>
        <mxCell id="YqHEcOafbWfe2nH9aOqu-60" value="&lt;font style=&quot;font-size: 32px;&quot;&gt;PASSWORD&lt;/font&gt;" style="strokeWidth=1;shadow=0;dashed=0;align=left;html=1;shape=mxgraph.mockup.text.alphanumeric;linkText=;html=1;fontStyle=4;fontSize=17;fontColor=#0000ff;" vertex="1" parent="1">
          <mxGeometry x="385" y="1360" width="450" height="50" as="geometry" />
        </mxCell>
        <mxCell id="YqHEcOafbWfe2nH9aOqu-61" value="Login" style="strokeWidth=1;shadow=0;dashed=0;align=center;html=1;shape=mxgraph.mockup.buttons.button;strokeColor=#666666;fontColor=#ffffff;mainText=;buttonStyle=round;fontSize=17;fontStyle=1;fillColor=#008cff;whiteSpace=wrap;" vertex="1" parent="1">
          <mxGeometry x="490" y="1490" width="150" height="50" as="geometry" />
        </mxCell>
        <mxCell id="YqHEcOafbWfe2nH9aOqu-62" value="Register" style="shape=rectangle;strokeColor=none;fillColor=none;linkText=;fontSize=17;fontColor=#0000ff;fontStyle=4;html=1;align=center;" vertex="1" parent="1">
          <mxGeometry x="430" y="1550" width="290" height="30" as="geometry" />
        </mxCell>
        <mxCell id="YqHEcOafbWfe2nH9aOqu-76" value="" style="rounded=0;whiteSpace=wrap;html=1;fillColor=#ffe6cc;strokeColor=#d79b00;" vertex="1" parent="1">
          <mxGeometry x="1125" y="890" width="1060" height="150" as="geometry" />
        </mxCell>
        <mxCell id="YqHEcOafbWfe2nH9aOqu-77" value="ICFAI UNIVERSITY Jaipur&lt;br&gt;Attendence Portal" style="strokeWidth=1;shadow=0;dashed=0;align=center;html=1;shape=mxgraph.mockup.text.alphanumeric;linkText=;html=1;fontStyle=4;fontSize=17;fontColor=#0000ff;" vertex="1" parent="1">
          <mxGeometry x="1440" y="925" width="450" height="50" as="geometry" />
        </mxCell>
        <mxCell id="YqHEcOafbWfe2nH9aOqu-78" value="" style="strokeWidth=1;shadow=0;dashed=0;align=center;html=1;shape=mxgraph.mockup.text.alphanumeric;linkText=;html=1;fontStyle=4;fontSize=17;fontColor=#0000ff;" vertex="1" parent="1">
          <mxGeometry x="1706" y="1141" width="450" height="50" as="geometry" />
        </mxCell>
        <mxCell id="YqHEcOafbWfe2nH9aOqu-79" value="&lt;font style=&quot;font-size: 25px;&quot;&gt;© QR Attendance System 2024 - Team Learning Outlaws&lt;/font&gt;" style="rounded=0;whiteSpace=wrap;html=1;" vertex="1" parent="1">
          <mxGeometry x="1110" y="1660" width="1060" height="60" as="geometry" />
        </mxCell>
        <mxCell id="YqHEcOafbWfe2nH9aOqu-80" value="&lt;div style=&quot;font-size: 32px;&quot;&gt;&lt;div style=&quot;&quot;&gt;&lt;br&gt;&lt;/div&gt;&lt;/div&gt;" style="strokeWidth=1;shadow=0;dashed=0;align=center;html=1;shape=mxgraph.mockup.text.alphanumeric;linkText=;html=1;fontStyle=4;fontSize=17;fontColor=#0000ff;" vertex="1" parent="1">
          <mxGeometry x="1470" y="1198" width="450" height="262" as="geometry" />
        </mxCell>
        <mxCell id="YqHEcOafbWfe2nH9aOqu-81" value="" style="rounded=0;whiteSpace=wrap;html=1;" vertex="1" parent="1">
          <mxGeometry x="1420" y="1100" width="490" height="531" as="geometry" />
        </mxCell>
        <mxCell id="YqHEcOafbWfe2nH9aOqu-82" value="&lt;font style=&quot;font-size: 55px;&quot;&gt;********&lt;/font&gt;" style="strokeWidth=1;shadow=0;dashed=0;align=center;html=1;shape=mxgraph.mockup.forms.pwField;strokeColor=#999999;mainText=;align=left;fontColor=#666666;fontSize=34;spacingLeft=3;" vertex="1" parent="1">
          <mxGeometry x="1476.5" y="1326" width="380" height="70" as="geometry" />
        </mxCell>
        <mxCell id="YqHEcOafbWfe2nH9aOqu-83" value="&lt;font style=&quot;font-size: 22px;&quot;&gt;USERNAME&lt;/font&gt;" style="strokeWidth=1;shadow=0;dashed=0;align=center;html=1;shape=mxgraph.mockup.text.textBox;fontColor=#666666;align=left;fontSize=17;spacingLeft=4;spacingTop=-3;whiteSpace=wrap;strokeColor=#666666;mainText=" vertex="1" parent="1">
          <mxGeometry x="1476.5" y="1190" width="385" height="70" as="geometry" />
        </mxCell>
        <mxCell id="YqHEcOafbWfe2nH9aOqu-84" style="edgeStyle=none;curved=1;rounded=0;orthogonalLoop=1;jettySize=auto;html=1;entryX=0.486;entryY=-0.032;entryDx=0;entryDy=0;entryPerimeter=0;fontSize=12;startSize=8;endSize=8;" edge="1" parent="1" source="YqHEcOafbWfe2nH9aOqu-83" target="YqHEcOafbWfe2nH9aOqu-83">
          <mxGeometry relative="1" as="geometry" />
        </mxCell>
        <mxCell id="YqHEcOafbWfe2nH9aOqu-85" value="&lt;font style=&quot;font-size: 32px;&quot;&gt;Username&lt;/font&gt;" style="strokeWidth=1;shadow=0;dashed=0;align=left;html=1;shape=mxgraph.mockup.text.alphanumeric;linkText=;html=1;fontStyle=4;fontSize=17;fontColor=#0000ff;" vertex="1" parent="1">
          <mxGeometry x="1475" y="1141" width="450" height="50" as="geometry" />
        </mxCell>
        <mxCell id="YqHEcOafbWfe2nH9aOqu-86" value="&lt;font style=&quot;font-size: 32px;&quot;&gt;Password&lt;/font&gt;" style="strokeWidth=1;shadow=0;dashed=0;align=left;html=1;shape=mxgraph.mockup.text.alphanumeric;linkText=;html=1;fontStyle=4;fontSize=17;fontColor=#0000ff;" vertex="1" parent="1">
          <mxGeometry x="1476.5" y="1276" width="450" height="50" as="geometry" />
        </mxCell>
        <mxCell id="YqHEcOafbWfe2nH9aOqu-92" value="&lt;font style=&quot;font-size: 55px;&quot;&gt;********&lt;/font&gt;" style="strokeWidth=1;shadow=0;dashed=0;align=center;html=1;shape=mxgraph.mockup.forms.pwField;strokeColor=#999999;mainText=;align=left;fontColor=#666666;fontSize=34;spacingLeft=3;" vertex="1" parent="1">
          <mxGeometry x="1475" y="1446" width="380" height="70" as="geometry" />
        </mxCell>
        <mxCell id="YqHEcOafbWfe2nH9aOqu-93" value="&lt;font style=&quot;font-size: 32px;&quot;&gt;Conferm Password&lt;/font&gt;" style="strokeWidth=1;shadow=0;dashed=0;align=left;html=1;shape=mxgraph.mockup.text.alphanumeric;linkText=;html=1;fontStyle=4;fontSize=17;fontColor=#0000ff;" vertex="1" parent="1">
          <mxGeometry x="1475" y="1396" width="450" height="50" as="geometry" />
        </mxCell>
        <mxCell id="YqHEcOafbWfe2nH9aOqu-94" value="Register" style="strokeWidth=1;shadow=0;dashed=0;align=center;html=1;shape=mxgraph.mockup.buttons.button;strokeColor=#666666;fontColor=#ffffff;mainText=;buttonStyle=round;fontSize=17;fontStyle=1;fillColor=#008cff;whiteSpace=wrap;" vertex="1" parent="1">
          <mxGeometry x="1611" y="1550" width="150" height="50" as="geometry" />
        </mxCell>
      </root>
    </mxGraphModel>
  </diagram>
</mxfile>
